{"glyphs":{"A":{"ha":897,"x_min":28,"x_max":869,"o":"m 741 0 l 662 234 l 235 234 l 156 0 l 28 0 l 363 1000 l 535 1000 l 869 0 l 741 0 m 274 350 l 623 350 l 447 870 l 274 350 z "},"B":{"ha":860,"x_min":97,"x_max":819,"o":"m 659 529 q 777 433 735 497 q 819 286 819 369 q 783 135 819 199 q 680 35 747 70 q 522 0 613 0 l 97 0 l 97 1000 l 487 1000 q 638 964 574 1000 q 736 867 702 928 q 771 737 771 807 q 741 614 771 669 q 659 529 712 560 m 222 583 l 485 583 q 566 602 530 583 q 623 656 602 621 q 644 737 644 691 q 624 813 644 779 q 568 865 603 846 q 485 883 532 883 l 222 883 l 222 583 m 498 118 q 598 139 553 118 q 667 197 642 159 q 692 287 692 235 q 669 378 692 337 q 605 442 646 419 q 512 466 564 466 l 222 466 l 222 118 l 498 118 z "},"C":{"ha":1004,"x_min":42,"x_max":949,"o":"m 508 -21 q 257 44 362 -21 q 97 227 151 110 q 42 500 42 345 q 97 773 42 655 q 257 956 151 890 q 508 1021 362 1021 q 711 981 622 1021 q 860 868 800 942 q 949 695 920 795 l 823 662 q 712 840 792 776 q 508 903 632 903 q 324 853 399 903 q 211 712 249 803 q 172 500 173 622 q 209 288 172 379 q 323 147 247 197 q 508 97 399 97 q 712 160 632 97 q 823 338 792 224 l 949 305 q 860 132 920 205 q 711 19 800 58 q 508 -21 622 -21 z "},"D":{"ha":946,"x_min":97,"x_max":883,"o":"m 406 1000 q 532 994 485 1000 q 724 911 644 979 q 843 736 803 842 q 883 500 883 629 q 843 264 883 370 q 724 89 803 157 q 532 6 644 21 q 406 0 485 0 l 97 0 l 97 1000 l 406 1000 m 406 118 q 522 126 482 118 q 695 249 638 147 q 752 500 752 351 q 695 752 752 650 q 522 874 638 853 q 406 882 482 882 l 224 882 l 224 118 l 406 118 z "},"E":{"ha":799,"x_min":97,"x_max":729,"o":"m 97 1000 l 729 1000 l 729 883 l 221 883 l 221 569 l 646 569 l 646 452 l 221 452 l 221 117 l 729 117 l 729 0 l 97 0 l 97 1000 z "},"F":{"ha":708,"x_min":97,"x_max":681,"o":"m 97 1000 l 681 1000 l 681 876 l 221 876 l 221 562 l 597 562 l 597 438 l 221 438 l 221 0 l 97 0 l 97 1000 z "},"G":{"ha":992,"x_min":42,"x_max":950,"o":"m 502 -21 q 260 42 365 -21 q 99 223 156 106 q 42 500 42 341 q 98 775 42 658 q 259 957 155 893 q 502 1020 363 1020 q 770 943 666 1020 q 915 728 874 867 l 790 703 q 685 849 757 796 q 508 902 613 901 q 324 853 399 903 q 211 712 249 803 q 173 500 174 622 q 210 289 172 379 q 323 148 248 198 q 508 97 399 98 q 728 178 651 97 q 817 413 805 260 l 604 413 l 604 515 l 947 515 q 950 456 950 489 q 898 209 950 317 q 745 40 847 101 q 502 -21 644 -21 z "},"H":{"ha":968,"x_min":97,"x_max":871,"o":"m 97 1000 l 221 1000 l 221 559 l 747 559 l 747 1000 l 871 1000 l 871 0 l 747 0 l 747 442 l 221 442 l 221 0 l 97 0 l 97 1000 z "},"I":{"ha":346,"x_min":111,"x_max":235,"o":"m 111 1000 l 235 1000 l 235 0 l 111 0 l 111 1000 z "},"J":{"ha":661,"x_min":0,"x_max":549,"o":"m 278 -20 q 100 36 174 -20 q 0 190 27 92 l 123 219 q 152 157 130 185 q 207 113 174 129 q 275 97 239 97 q 351 116 314 97 q 406 173 388 135 q 422 227 419 197 q 424 314 424 257 l 424 1000 l 549 1000 l 549 314 l 549 269 q 543 180 549 215 q 517 109 538 145 q 418 12 480 44 q 278 -20 356 -20 z "},"K":{"ha":849,"x_min":97,"x_max":849,"o":"m 97 1000 l 221 1000 l 221 531 l 658 1000 l 814 1000 l 360 515 l 849 0 l 690 0 l 221 489 l 221 0 l 97 0 l 97 1000 z "},"L":{"ha":719,"x_min":111,"x_max":699,"o":"m 111 1000 l 235 1000 l 235 117 l 699 117 l 699 0 l 111 0 l 111 1000 z "},"M":{"ha":1174,"x_min":97,"x_max":1077,"o":"m 97 1000 l 210 1000 l 588 203 l 963 1000 l 1077 1000 l 1077 1 l 960 1 l 960 728 l 620 0 l 554 0 l 215 728 l 215 0 l 97 0 l 97 1000 z "},"N":{"ha":966,"x_min":97,"x_max":869,"o":"m 97 1000 l 222 1000 l 744 219 l 744 1000 l 869 1000 l 869 0 l 744 0 l 222 782 l 222 0 l 97 0 l 97 1000 z "},"O":{"ha":1017,"x_min":42,"x_max":975,"o":"m 508 -21 q 257 44 362 -21 q 97 227 151 110 q 42 500 42 345 q 97 773 42 655 q 257 956 151 890 q 508 1021 362 1021 q 760 956 655 1021 q 920 773 865 890 q 975 500 975 655 q 920 227 975 345 q 760 44 865 110 q 508 -21 655 -21 m 508 97 q 693 147 617 97 q 806 288 768 197 q 844 500 844 378 q 806 712 844 622 q 693 852 768 802 q 508 903 618 902 q 324 853 399 903 q 211 713 249 803 q 173 500 174 622 q 210 289 172 379 q 323 148 248 198 q 508 97 399 98 z "},"P":{"ha":855,"x_min":97,"x_max":813,"o":"m 492 1000 q 566 994 532 1000 q 701 939 645 982 q 785 831 756 897 q 813 685 813 765 q 785 539 813 604 q 700 430 756 473 q 566 375 644 388 q 492 369 532 369 l 221 369 l 221 0 l 97 0 l 97 1000 l 492 1000 m 488 487 q 551 493 524 487 q 652 563 618 508 q 687 685 687 617 q 652 807 687 753 q 551 876 618 861 q 488 883 524 883 l 221 883 l 221 487 l 488 487 z "},"Q":{"ha":1017,"x_min":42,"x_max":975,"o":"m 975 500 q 949 306 975 394 q 874 149 924 217 l 962 61 l 882 -20 l 794 67 q 508 -21 677 -21 q 257 44 362 -21 q 97 227 151 110 q 42 500 42 345 q 97 773 42 655 q 257 956 151 890 q 508 1021 362 1021 q 760 956 655 1021 q 920 773 865 890 q 975 500 975 655 m 513 97 q 706 156 626 97 l 609 251 l 690 333 l 782 241 q 844 500 844 342 q 806 712 844 622 q 693 852 768 802 q 508 903 618 902 q 324 853 399 903 q 211 713 249 803 q 173 500 174 622 q 210 287 172 378 q 325 147 249 197 q 513 97 401 97 z "},"R":{"ha":890,"x_min":97,"x_max":834,"o":"m 692 0 l 513 369 l 221 369 l 221 0 l 97 0 l 97 1000 l 492 1000 q 566 994 532 1000 q 701 939 645 982 q 785 831 756 897 q 813 685 813 765 q 769 508 813 584 q 641 397 724 431 l 834 0 l 692 0 m 488 487 q 551 493 524 487 q 652 563 618 508 q 687 685 687 617 q 652 807 687 753 q 551 876 618 861 q 488 883 524 883 l 221 883 l 221 487 l 488 487 z "},"S":{"ha":875,"x_min":49,"x_max":826,"o":"m 452 -21 q 261 15 347 -21 q 120 119 176 51 q 49 277 65 186 l 176 297 q 232 190 192 235 q 331 120 272 144 q 458 97 389 97 q 581 118 526 97 q 667 179 635 140 q 699 272 699 219 q 660 366 699 332 q 559 419 622 400 l 304 494 q 147 581 207 523 q 88 740 88 638 q 133 890 88 826 q 258 987 178 953 q 438 1020 338 1021 q 618 984 538 1019 q 750 884 698 949 q 820 728 802 818 l 689 705 q 642 810 678 765 q 552 879 606 855 q 433 903 497 903 q 323 882 372 903 q 246 826 274 862 q 218 745 218 790 q 242 674 218 702 q 302 629 267 645 q 385 600 337 613 l 575 545 q 692 502 640 527 q 785 422 744 476 q 826 279 826 367 q 777 117 826 185 q 643 14 728 49 q 452 -21 558 -21 z "},"T":{"ha":833,"x_min":14,"x_max":819,"o":"m 355 883 l 14 883 l 14 1000 l 819 1000 l 819 883 l 478 883 l 478 0 l 355 0 l 355 883 z "},"U":{"ha":983,"x_min":97,"x_max":886,"o":"m 492 -21 q 287 27 376 -21 q 147 162 197 75 q 97 365 97 249 l 97 999 l 222 1000 l 222 375 q 262 222 222 285 q 363 127 301 159 q 492 96 425 96 q 620 127 558 96 q 722 222 683 159 q 761 375 761 285 l 761 1000 l 886 1000 l 886 365 q 836 163 886 250 q 697 27 786 75 q 492 -21 607 -21 z "},"V":{"ha":856,"x_min":7,"x_max":849,"o":"m 7 1000 l 135 1000 l 426 131 l 720 1000 l 849 1000 l 514 0 l 342 0 l 7 1000 z "},"W":{"ha":1318,"x_min":21,"x_max":1297,"o":"m 21 1000 l 150 1000 l 372 209 l 594 999 l 724 1000 l 946 209 l 1167 1000 l 1297 1000 l 1008 0 l 884 0 l 659 784 l 434 0 l 310 0 l 21 1000 z "},"X":{"ha":865,"x_min":14,"x_max":851,"o":"m 358 506 l 23 1000 l 174 1000 l 433 610 l 691 1000 l 842 1000 l 508 506 l 851 0 l 700 0 l 433 401 l 165 0 l 14 0 l 358 506 z "},"Y":{"ha":798,"x_min":0,"x_max":798,"o":"m 337 416 l 0 1000 l 144 1000 l 399 558 l 654 1000 l 798 1000 l 462 416 l 462 0 l 337 0 l 337 416 z "},"Z":{"ha":876,"x_min":69,"x_max":806,"o":"m 69 22 l 598 883 l 90 883 l 90 1000 l 806 1000 l 806 976 l 281 117 l 799 117 l 799 0 l 69 0 l 69 22 z "}}}
